<svg xmlns="http://www.w3.org/2000/svg" viewBox="0 0 1080 1080" overflow="hidden" preserveAspectRatio="xMidYMid meet" id="eaf-14a26-0"><!-- Created with Expressive Animator v1.7.1 | https://expressive.app/expressive-animator/ --><defs><clipPath id="eaf-14a26-1"><rect x="0" y="0" width="1080" height="1080"></rect></clipPath></defs><g clip-path="url('#eaf-14a26-1')" style="isolation: isolate;"><g><g transform="matrix(1.0253 0 0 1.0672 74.8049 20.4574)"><g><g><polygon points="397.95,45.75 397.95,109.61 405.08,109.61 405.08,52.41 466.97,52.41 466.97,109.61 474.11,109.61 474.11,45.75 397.95,45.75" fill="#fff" stroke="#fff" stroke-width="5" stroke-miterlimit="10"></polygon><rect fill="#fff" stroke="#fff" stroke-miterlimit="10" width="13.45" height="10.25" transform="translate(395.24 111.42)"></rect><rect fill="#fff" stroke="#fff" stroke-miterlimit="10" width="13.49" height="14.19" transform="translate(463.33 107.99)"></rect></g><g><ellipse fill="none" stroke="#fff" stroke-width="10" stroke-miterlimit="10" rx="338.96" ry="338.96" transform="translate(435.99 544.02)"></ellipse><path fill="none" stroke="#fff" stroke-width="10" stroke-miterlimit="10" d="m405.08 114.15c-223.6 15.84 -400.08 202.23 -400.08 429.87c0 227.64 192.96 430.99 430.99 430.99c238.03 0 430.99 -192.96 430.99 -430.99c0 -238.03 -176.45 -413.98 -400.01 -429.87"></path><rect fill="#fff" stroke="#fff" stroke-width="10" stroke-miterlimit="10" width="178.65" height="43" transform="translate(346.7 5)"></rect><rect fill="#fff" stroke="#fff" stroke-width="10" stroke-miterlimit="10" width="61.86" height="49.95" transform="matrix(0.8395 0.5433 -0.5433 0.8395 678.0353 125.5412)"></rect><rect fill="#fff" stroke="#fff" stroke-width="10" stroke-miterlimit="10" width="126.29" height="43" transform="matrix(0.8395 0.5433 -0.5433 0.8395 674.7784 71.2687)"></rect><rect fill="#fff" stroke="#fff" stroke-width="10" stroke-miterlimit="10" width="61.86" height="49.95" transform="matrix(-0.8395 0.5433 -0.5433 -0.8395 222.9061 167.1448)"></rect><rect fill="#fff" stroke="#fff" stroke-width="10" stroke-miterlimit="10" width="126.29" height="43" transform="matrix(-0.8395 0.5433 -0.5433 -0.8395 222.3982 107.0357)"></rect><ellipse fill="#fff" stroke="#fff" stroke-miterlimit="10" rx="433.56" ry="431.52" transform="translate(436.03 543.48)" opacity="0.04"></ellipse><path fill="#fff" stroke="#fff" stroke-miterlimit="10" d="m436.03 112.56c-239.45 0 -433.56 193.19 -433.56 431.51c0 238.32 194.11 431.52 433.56 431.52c239.45 0 433.56 -193.2 433.56 -431.52c0 -238.32 -194.11 -431.5099 -433.56 -431.5099zm0 770.47c-187.2 0 -338.96 -151.76 -338.96 -338.96c0 -187.2 151.76 -338.9501 338.96 -338.9501c187.2 0 338.96 151.76 338.96 338.96c0 187.2 -151.76 338.96 -338.96 338.96l0 -0.0099z"></path><rect fill="#fff" stroke="#fff" stroke-width="10" stroke-miterlimit="10" width="72.13" height="115.54" transform="translate(397.95 30.8)"></rect></g></g></g><g><g transform="translate(244.2805 300.819)"><g><g transform="translate(-0.085 -5.9648)"><path fill="#fff" stroke="#fff" stroke-miterlimit="10" d="m466.96 55.53c-9.9 10.33 -94.98 89.58 -100.52 93.94c-5.54 4.36 -21.5 -49.98 -154.17 -49.28c-129.52 14.4 -182.5 144.79 -185.77 152.9c-3.27 8.11 -10.23 47.3 -23.27 23.8c-13.9 -20.22 29.63 -121.25 29.63 -121.25c66.69 -131.91 254.46 -216.37 434.1 -100.11z"></path><path fill="#fff" stroke="#fff" stroke-miterlimit="10" d="m88.2 540.9c9.9 -10.33 94.98 -89.58 100.52 -93.94c5.54 -4.36 21.5 49.98 154.17 49.28c129.52 -14.4 182.49 -144.79 185.76 -152.91c3.27 -8.11 10.23 -47.3 23.27 -23.8c13.9 20.22 -29.63 121.25 -29.63 121.25c-66.68 131.92 -254.44 216.38 -434.09 100.12l0 0z"></path><path fill="#fff" stroke="#fff" stroke-miterlimit="10" d="m225.48 350.33l-164.44 165.59l-25.3 -36.22l94.87 -160.42l77.62 0c3.88 12.93 9.12 23.97 17.25 31.05l0 0z"></path><path fill="#fff" stroke="#fff" stroke-miterlimit="10" d="m328.98 247.12l164.44 -165.59l25.3 36.22l-94.87 160.42l-77.62 0c-3.88 -12.93 -9.12 -23.97 -17.25 -31.05l0 0z"></path></g></g><ellipse fill="#fff" stroke="#fff" stroke-miterlimit="10" rx="46.29" ry="46.29" transform="translate(277.49 292.25)"></ellipse></g><animateTransform attributeName="transform" type="translate" from="521.7705 593.069" to="521.7705 593.069" calcMode="discrete" dur="5000ms" repeatCount="indefinite"></animateTransform><animateTransform keyTimes="0;1" calcMode="spline" keySplines="0.41 0.128 0.62 0.898" dur="5000ms" repeatCount="indefinite" attributeName="transform" values="0;720" type="rotate" additive="sum"></animateTransform><animateTransform attributeName="transform" type="translate" from="-521.7705 -593.069" to="-521.7705 -593.069" calcMode="discrete" dur="5000ms" repeatCount="indefinite" additive="sum"></animateTransform></g></g></g></svg>