<?xml version="1.0" encoding="UTF-8"?>
<svg id="Layer_2" xmlns="http://www.w3.org/2000/svg" viewBox="0 0 871.97 980">
  <defs>
    <style>
      .cls-1, .cls-2, .cls-3, .cls-4 {
        fill: #231f20;
      }

      .cls-1, .cls-5 {
        stroke-width: 10px;
      }

      .cls-1, .cls-5, .cls-3, .cls-4 {
        stroke: #231f20;
        stroke-miterlimit: 10;
      }

      .cls-5 {
        fill: none;
      }

      .cls-3 {
        stroke-width: 5px;
      }
    </style>
  </defs>
  <g id="Layer_1-2" data-name="Layer_1">
    <rect class="cls-1" x="346.7" y="5" width="178.65" height="43"/>
    <rect class="cls-1" x="665.49" y="132.35" width="49.95" height="61.86" transform="translate(178.27 654.25) rotate(-57.09)"/>
    <rect class="cls-1" x="694.64" y="60.45" width="43" height="126.29" transform="translate(223.31 657.69) rotate(-57.09)"/>
    <rect class="cls-1" x="152.45" y="138" width="61.86" height="49.95" transform="translate(-59.12 125.77) rotate(-32.91)"/>
    <rect class="cls-1" x="94.55" y="101.79" width="126.29" height="43" transform="translate(-41.68 105.46) rotate(-32.91)"/>
    <circle class="cls-5" cx="435.99" cy="544.02" r="338.96"/>
    <path class="cls-5" d="M405.08,114.15C181.48,129.99,5,316.38,5,544.02s192.96,430.99,430.99,430.99,430.99-192.96,430.99-430.99S690.53,130.04,466.97,114.15"/>
    <polygon class="cls-3" points="397.95 45.75 397.95 109.61 405.08 109.61 405.08 52.41 466.97 52.41 466.97 109.61 474.11 109.61 474.11 45.75 397.95 45.75"/>
    <rect class="cls-2" x="395.24" y="111.42" width="13.45" height="10.25"/>
    <rect class="cls-2" x="463.33" y="107.99" width="13.49" height="14.19"/>
    <path class="cls-4" d="M436.03,112.56C196.58,112.56,2.47,305.75,2.47,544.07s194.11,431.52,433.56,431.52,433.56-193.2,433.56-431.52S675.48,112.56,436.03,112.56ZM436.03,883.03c-187.2,0-338.96-151.76-338.96-338.96S248.83,205.12,436.03,205.12s338.96,151.76,338.96,338.96-151.76,338.96-338.96,338.96Z"/>
    <rect class="cls-1" x="397.95" y="30.8" width="72.13" height="115.54"/>
  </g>
</svg>