<?xml version="1.0" encoding="UTF-8"?>
<svg id="Layer_2" xmlns="http://www.w3.org/2000/svg" viewBox="0 0 555.16 596.43">
  <defs>
    <style>
      .cls-1 {
        fill: #fff;
        stroke: #fff;
        stroke-miterlimit: 10;
      }
    </style>
  </defs>
  <g id="Layer_3">
    <g>
      <g>
        <path class="cls-1" d="M466.96,55.53c-9.9,10.33-94.98,89.58-100.52,93.94s-21.5-49.98-154.17-49.28C82.75,114.59,29.77,244.98,26.5,253.09c-3.27,8.11-10.23,47.3-23.27,23.8-13.9-20.22,29.63-121.25,29.63-121.25C99.55,23.73,287.32-60.73,466.96,55.53Z"/>
        <path class="cls-1" d="M88.2,540.9c9.9-10.33,94.98-89.58,100.52-93.94,5.54-4.36,21.5,49.98,154.17,49.28,129.52-14.4,182.49-144.79,185.76-152.91,3.27-8.11,10.23-47.3,23.27-23.8,13.9,20.22-29.63,121.25-29.63,121.25-66.68,131.92-254.44,216.38-434.09,100.12Z"/>
        <path class="cls-1" d="M225.48,350.33l-164.44,165.59-25.3-36.22,94.87-160.42h77.62c3.88,12.93,9.12,23.97,17.25,31.05Z"/>
        <path class="cls-1" d="M328.98,247.12l164.44-165.59,25.3,36.22-94.87,160.42h-77.62c-3.88-12.93-9.12-23.97-17.25-31.05Z"/>
      </g>
      <circle class="cls-1" cx="277.49" cy="292.25" r="46.29"/>
    </g>
  </g>
</svg>