<?xml version="1.0" encoding="UTF-8"?>
<svg id="Layer_2" xmlns="http://www.w3.org/2000/svg" viewBox="0 0 554.16 595.43">
  <defs>
    <style>
      .cls-1 {
        fill: #231f20;
      }
    </style>
  </defs>
  <g id="Layer_1-2" data-name="Layer_1">
    <g>
      <g>
        <path class="cls-1" d="M466.46,55.03c-9.9,10.33-94.98,89.58-100.52,93.94s-21.5-49.98-154.17-49.28C82.25,114.09,29.27,244.48,26,252.59c-3.27,8.11-10.23,47.3-23.27,23.8-13.9-20.22,29.63-121.25,29.63-121.25C99.05,23.23,286.82-61.23,466.46,55.03Z"/>
        <path class="cls-1" d="M87.7,540.4c9.9-10.33,94.98-89.58,100.52-93.94,5.54-4.36,21.5,49.98,154.17,49.28,129.52-14.4,182.49-144.79,185.76-152.91,3.27-8.11,10.23-47.3,23.27-23.8,13.9,20.22-29.63,121.25-29.63,121.25-66.68,131.92-254.44,216.38-434.09,100.12Z"/>
        <path class="cls-1" d="M224.98,349.83l-164.44,165.59-25.3-36.22,94.87-160.42h77.62c3.88,12.93,9.12,23.97,17.25,31.05Z"/>
        <path class="cls-1" d="M328.48,246.62l164.44-165.59,25.3,36.22-94.87,160.42h-77.62c-3.88-12.93-9.12-23.97-17.25-31.05Z"/>
      </g>
      <circle class="cls-1" cx="276.99" cy="291.75" r="46.29"/>
    </g>
  </g>
</svg>